<?xml version="1.0" encoding="UTF-8" ?>
<!DOCTYPE svg PUBLIC "-//W3C//DTD SVG 1.1//EN" "http://www.w3.org/Graphics/SVG/1.1/DTD/svg11.dtd">
<svg width="910pt" height="137pt" viewBox="0 0 910 137" version="1.1" xmlns="http://www.w3.org/2000/svg">
<path fill="#ffffff" stroke="#4d7c34" stroke-width="1" d=" M 529.24 15.56 C 536.39 14.71 543.54 13.91 550.69 13.11 C 551.00 15.92 551.31 18.73 551.60 21.55 C 547.04 22.08 542.47 22.56 537.91 23.10 C 543.35 25.80 548.78 28.51 554.20 31.25 C 548.49 32.92 542.76 34.58 537.06 36.27 C 541.73 36.99 546.40 37.66 551.08 38.35 C 550.65 41.14 550.24 43.94 549.84 46.73 C 542.73 45.74 535.63 44.65 528.52 43.66 C 528.98 38.72 527.23 33.43 529.23 28.74 C 527.56 24.52 529.14 19.93 529.24 15.56 Z" />
<path fill="#ffffff" stroke="#4d7c34" stroke-width="1" d=" M 139.98 21.19 C 157.42 18.73 174.84 16.18 192.29 13.77 C 193.24 28.33 194.06 42.90 195.02 57.47 C 183.84 58.12 172.65 58.59 161.47 59.26 C 161.49 60.37 161.51 61.48 161.53 62.59 C 167.46 62.82 173.39 62.98 179.32 63.30 C 179.04 69.30 178.81 75.30 178.54 81.30 C 167.29 80.79 156.03 80.49 144.77 80.07 C 143.13 60.45 141.62 40.82 139.98 21.19 Z" />
<path fill="#ffffff" stroke="#4d7c34" stroke-width="1" d=" M 413.51 21.18 C 430.93 18.70 448.36 16.26 465.77 13.71 C 466.75 28.29 467.55 42.88 468.53 57.46 C 457.34 58.14 446.14 58.59 434.96 59.26 C 434.99 60.37 435.04 61.48 435.08 62.60 C 441.00 62.82 446.91 62.98 452.82 63.31 C 452.53 69.30 452.31 75.30 452.06 81.29 C 440.80 80.81 429.54 80.48 418.28 80.08 C 416.63 60.45 415.09 40.81 413.51 21.18 Z" />
<path fill="#ffffff" stroke="#4d7c34" stroke-width="1" d=" M 613.25 21.19 C 630.68 18.74 648.10 16.17 665.54 13.77 C 666.48 28.33 667.32 42.90 668.27 57.46 C 657.10 58.13 645.91 58.59 634.74 59.26 C 634.74 60.37 634.74 61.47 634.75 62.58 C 640.69 62.82 646.63 62.98 652.57 63.31 C 652.28 69.30 652.06 75.30 651.81 81.29 C 640.55 80.80 629.28 80.50 618.02 80.06 C 616.39 60.44 614.85 40.81 613.25 21.19 Z" />
<path fill="#ffffff" stroke="#4d7c34" stroke-width="1" d=" M 765.74 21.19 C 783.17 18.73 800.60 16.19 818.04 13.76 C 818.99 28.33 819.81 42.90 820.77 57.46 C 809.59 58.13 798.39 58.58 787.20 59.27 C 787.23 60.38 787.27 61.49 787.32 62.60 C 793.23 62.81 799.15 63.00 805.06 63.29 C 804.79 69.29 804.56 75.29 804.30 81.30 C 793.04 80.79 781.78 80.51 770.53 80.05 C 768.87 60.44 767.36 40.81 765.74 21.19 Z" />
<path fill="#ffffff" stroke="#4d7c34" stroke-width="1" d=" M 119.50 17.00 C 125.68 16.92 131.86 17.08 138.04 17.30 C 137.29 34.84 138.16 52.42 137.54 69.96 C 137.45 74.89 137.50 79.81 137.51 84.74 C 118.17 82.57 98.82 80.40 79.48 78.19 C 80.55 63.80 81.56 49.40 82.58 35.00 C 94.89 35.64 107.21 36.12 119.52 36.68 C 119.48 30.12 119.51 23.56 119.50 17.00 Z" />
<path fill="#ffffff" stroke="#4d7c34" stroke-width="1" d=" M 299.29 17.96 C 312.37 18.60 325.47 18.90 338.55 19.56 C 338.03 39.45 337.77 59.36 337.19 79.25 C 321.62 80.71 306.04 82.07 290.47 83.53 C 291.27 70.15 291.94 56.77 292.72 43.39 C 301.81 43.10 310.91 42.85 320.00 42.46 C 320.00 40.74 320.00 39.02 320.00 37.30 C 312.91 36.99 305.81 36.79 298.71 36.65 C 298.83 30.42 299.01 24.19 299.29 17.96 Z" />
<path fill="#ffffff" stroke="#4d7c34" stroke-width="1" d=" M 564.77 21.80 C 580.56 20.25 596.36 18.81 612.15 17.22 C 611.36 27.28 610.56 37.34 609.73 47.40 C 603.65 46.93 597.57 46.45 591.49 45.96 C 591.77 43.11 592.05 40.26 592.33 37.40 C 589.06 37.71 585.80 38.01 582.55 38.30 C 582.14 47.67 582.27 57.05 581.96 66.43 C 588.59 65.76 595.23 65.13 601.86 64.39 C 602.48 70.49 603.07 76.59 603.70 82.69 C 590.28 83.92 576.86 85.24 563.44 86.50 C 564.03 64.94 564.13 43.36 564.77 21.80 Z" />
<path fill="#ffffff" stroke="#4d7c34" stroke-width="1" d=" M 853.79 17.95 C 866.87 18.61 879.97 18.90 893.05 19.54 C 892.53 39.45 892.27 59.36 891.69 79.27 C 876.12 80.69 860.54 82.08 844.97 83.53 C 845.79 70.15 846.39 56.76 847.25 43.39 C 856.33 43.10 865.42 42.85 874.51 42.45 C 874.50 40.73 874.50 39.02 874.51 37.30 C 867.43 36.98 860.34 36.80 853.25 36.65 C 853.31 30.41 853.51 24.18 853.79 17.95 Z" />
<path fill="#ffffff" stroke="#4d7c34" stroke-width="1" d=" M 470.23 19.26 C 481.49 19.07 492.74 19.68 504.00 19.50 C 503.64 25.49 503.75 31.50 503.76 37.50 C 498.84 37.50 493.92 37.50 489.00 37.50 C 489.00 38.31 489.00 39.94 489.00 40.75 C 497.07 40.59 505.12 41.11 513.19 41.01 C 513.82 54.25 514.34 67.50 515.04 80.73 C 502.63 81.77 490.22 82.73 477.82 83.76 C 477.31 77.66 476.80 71.57 476.38 65.46 C 482.92 64.97 489.46 64.50 496.01 63.98 C 495.88 62.32 495.77 60.66 495.67 59.00 C 487.36 59.12 479.07 58.58 470.76 58.76 C 470.58 45.59 470.44 32.42 470.23 19.26 Z" />
<path fill="#ffffff" stroke="#4d7c34" stroke-width="1" d=" M 669.44 25.08 C 686.60 24.46 703.77 24.11 720.93 23.44 C 721.23 33.11 721.40 42.78 721.82 52.45 C 715.73 52.81 709.64 52.92 703.56 53.28 C 703.45 49.67 703.26 46.05 703.18 42.44 C 698.19 42.70 693.19 42.74 688.20 43.01 C 688.65 53.90 688.82 64.80 689.31 75.69 C 683.23 75.89 677.14 76.02 671.07 76.31 C 670.36 59.24 670.13 42.15 669.44 25.08 Z" />
<path fill="#ffffff" stroke="#4d7c34" stroke-width="1" d=" M 825.58 24.67 C 831.61 24.29 837.65 23.91 843.68 23.47 C 843.87 26.48 844.06 29.48 844.27 32.48 C 838.19 32.92 832.11 33.33 826.04 33.79 C 825.86 30.75 825.71 27.71 825.58 24.67 Z" />
<path fill="#ffffff" stroke="#4d7c34" stroke-width="1" d=" M 59.49 25.07 C 65.57 24.78 71.66 24.69 77.75 24.75 C 77.75 27.75 77.75 30.75 77.75 33.75 C 71.67 33.75 65.59 33.75 59.50 33.75 C 59.50 30.86 59.50 27.96 59.49 25.07 Z" />
<path fill="#ffffff" stroke="#4d7c34" stroke-width="1" d=" M 197.25 26.96 C 211.25 27.68 225.25 28.28 239.26 28.88 C 240.04 47.06 240.56 65.25 241.32 83.43 C 226.20 84.01 211.07 84.41 195.95 85.05 C 196.50 65.69 196.66 46.32 197.25 26.96 Z" />
<path fill="#ffffff" stroke="#4d7c34" stroke-width="1" d=" M 377.91 31.88 C 378.82 30.08 379.73 28.28 380.65 26.48 C 389.30 27.22 397.96 27.90 406.63 28.59 C 408.31 44.14 410.16 59.68 411.86 75.23 C 405.91 75.93 399.95 76.55 394.00 77.25 C 392.86 67.31 391.73 57.37 390.62 47.42 C 384.85 59.15 378.93 70.81 373.12 82.52 C 369.49 70.33 365.91 58.13 362.29 45.94 C 360.73 55.97 359.30 66.02 357.79 76.07 C 351.78 75.15 345.76 74.25 339.75 73.35 C 341.94 58.24 344.21 43.15 346.34 28.04 C 356.46 27.63 366.59 27.60 376.71 27.19 C 377.01 28.36 377.61 30.71 377.91 31.88 Z" />
<path fill="#ffffff" stroke="#4d7c34" stroke-width="1" d=" M 241.72 30.07 C 257.65 29.37 273.57 28.55 289.50 27.71 C 289.50 47.87 289.49 68.04 289.50 88.20 C 278.03 88.77 266.54 88.97 255.07 89.56 C 254.73 83.40 254.58 77.23 254.30 71.07 C 259.96 70.96 265.61 70.74 271.26 70.46 C 271.26 69.71 271.24 68.22 271.24 67.48 C 262.17 68.30 253.11 69.10 244.05 69.85 C 243.17 56.60 242.56 43.33 241.72 30.07 Z" />
<path fill="#ffffff" stroke="#4d7c34" stroke-width="1" d=" M 39.73 33.29 C 45.57 34.70 51.41 36.07 57.24 37.48 C 53.71 52.34 50.28 67.22 46.75 82.08 C 39.57 82.78 32.39 83.52 25.22 84.27 C 21.72 68.95 18.24 53.63 14.75 38.31 C 20.72 36.98 26.69 35.66 32.66 34.32 C 33.70 39.13 34.75 43.94 35.85 48.75 C 37.18 43.60 38.45 38.45 39.73 33.29 Z" />
<path fill="#61964a" stroke="#4d7c34" stroke-width="1" d=" M 632.64 36.58 C 637.98 35.78 643.33 35.09 648.67 34.30 C 648.76 36.28 648.87 38.25 649.00 40.22 C 643.69 40.56 638.37 40.86 633.05 41.10 C 632.91 39.60 632.77 38.09 632.64 36.58 Z" />
<path fill="#ffffff" stroke="#4d7c34" stroke-width="1" d=" M 722.49 37.42 C 728.42 36.05 734.33 34.62 740.27 33.25 C 741.47 38.15 742.60 43.06 744.08 47.88 C 745.19 43.38 746.27 38.86 747.22 34.32 C 753.14 35.63 759.05 36.99 764.98 38.30 C 761.52 53.62 758.08 68.95 754.60 84.27 C 747.42 83.47 740.23 82.75 733.05 81.97 C 729.53 67.12 726.02 52.27 722.49 37.42 Z" />
<path fill="#61964a" stroke="#4d7c34" stroke-width="1" d=" M 159.40 36.59 C 164.73 35.78 170.09 35.08 175.43 34.32 C 175.52 36.29 175.63 38.26 175.75 40.23 C 170.43 40.56 165.11 40.87 159.79 41.09 C 159.66 39.59 159.52 38.09 159.40 36.59 Z" />
<path fill="#61964a" stroke="#4d7c34" stroke-width="1" d=" M 432.90 36.57 C 438.23 35.79 443.57 35.10 448.89 34.29 C 449.00 36.27 449.13 38.24 449.26 40.22 C 443.94 40.56 438.62 40.85 433.29 41.11 C 433.16 39.60 433.02 38.08 432.90 36.57 Z" />
<path fill="#61964a" stroke="#4d7c34" stroke-width="1" d=" M 785.15 36.58 C 790.48 35.78 795.83 35.08 801.16 34.32 C 801.25 36.29 801.37 38.26 801.51 40.22 C 796.18 40.56 790.86 40.85 785.54 41.10 C 785.40 39.60 785.28 38.09 785.15 36.58 Z" />
<path fill="#ffffff" stroke="#4d7c34" stroke-width="1" d=" M 58.19 41.80 C 64.25 41.60 70.31 41.51 76.37 41.31 C 76.65 53.44 76.88 65.58 77.31 77.71 C 71.23 78.06 65.14 78.00 59.06 78.31 C 58.62 66.14 58.63 53.97 58.19 41.80 Z" />
<path fill="#ffffff" stroke="#4d7c34" stroke-width="1" d=" M 823.98 43.05 C 830.04 42.80 836.11 42.57 842.17 42.32 C 843.02 68.96 844.00 95.60 845.05 122.23 C 832.06 122.44 819.06 122.54 806.07 122.79 C 805.80 116.70 805.68 110.61 805.75 104.51 C 812.52 104.62 819.28 104.19 826.06 104.23 C 825.23 83.84 824.80 63.44 823.98 43.05 Z" />
<path fill="#61964a" stroke="#4d7c34" stroke-width="1" d=" M 215.02 45.97 C 217.18 46.10 219.34 46.23 221.50 46.33 C 221.81 52.78 221.95 59.24 222.29 65.69 C 219.68 65.84 217.06 65.97 214.45 66.09 C 214.74 59.38 214.68 52.67 215.02 45.97 Z" />
<path fill="#61964a" stroke="#4d7c34" stroke-width="1" d=" M 260.84 47.32 C 264.30 47.13 267.77 46.94 271.23 46.72 C 271.24 47.64 271.26 48.55 271.27 49.47 C 267.95 49.74 264.62 49.99 261.30 50.26 C 261.14 49.28 260.99 48.30 260.84 47.32 Z" />
<path fill="#ffffff" stroke="#4d7c34" stroke-width="1" d=" M 529.08 48.34 C 537.54 47.97 546.01 47.62 554.49 47.44 C 554.83 54.47 554.95 61.51 555.30 68.55 C 546.27 68.29 537.24 68.12 528.20 67.96 C 528.58 61.43 528.88 54.89 529.08 48.34 Z" />
<path fill="#61964a" stroke="#4d7c34" stroke-width="1" d=" M 99.56 53.93 C 106.21 54.29 112.85 54.61 119.50 54.82 C 119.50 58.02 119.50 61.22 119.52 64.42 C 112.67 63.64 105.83 62.84 98.98 62.06 C 99.18 59.35 99.37 56.64 99.56 53.93 Z" />
<path fill="#61964a" stroke="#4d7c34" stroke-width="1" d=" M 537.31 56.31 C 540.27 56.24 543.23 56.12 546.19 55.97 C 546.25 57.26 546.32 58.55 546.40 59.84 C 543.27 59.73 540.15 59.58 537.03 59.46 C 537.12 58.41 537.21 57.36 537.31 56.31 Z" />
<path fill="#61964a" stroke="#4d7c34" stroke-width="1" d=" M 310.06 60.80 C 313.20 60.75 316.34 60.62 319.48 60.47 C 319.49 60.97 319.51 61.99 319.53 62.49 C 316.21 62.81 312.90 63.12 309.59 63.43 C 309.74 62.55 309.90 61.68 310.06 60.80 Z" />
<path fill="#61964a" stroke="#4d7c34" stroke-width="1" d=" M 864.56 60.81 C 867.72 60.75 870.89 60.62 874.06 60.47 C 874.02 60.98 873.93 62.01 873.89 62.53 C 870.61 62.82 867.35 63.13 864.08 63.41 C 864.23 62.54 864.39 61.68 864.56 60.81 Z" />
<path fill="#ffffff" stroke="#4d7c34" stroke-width="1" d=" M 523.96 70.20 C 527.97 69.87 531.98 69.57 535.98 69.25 C 536.20 72.04 536.40 74.83 536.60 77.62 C 535.37 77.80 534.14 77.97 532.92 78.14 C 533.02 80.12 533.15 82.09 533.28 84.07 C 536.59 83.87 539.91 83.68 543.23 83.48 C 542.91 80.40 542.61 77.32 542.30 74.25 C 545.10 74.00 547.91 73.75 550.72 73.48 C 551.34 79.63 551.88 85.80 552.52 91.95 C 543.27 92.34 534.02 92.39 524.78 92.81 C 524.39 85.28 524.32 77.73 523.96 70.20 Z" />
</svg>
