<svg xmlns="http://www.w3.org/2000/svg" width="25.6" height="25.6" viewBox="0 0 24.000002 24.000001"><ellipse cx="109.376" cy="727.23" rx="11.978" ry="11.978" fill="#e481a6" stroke="#fff" stroke-width=".044" transform="translate(-97.376 -715.23)"/><path d="M6.034 5C5.461 5 5 5.461 5 6.034v11.932C5 18.539 5.461 19 6.034 19h11.932c.573 0 1.034-.461 1.034-1.034V6.034C19 5.461 18.539 5 17.966 5H6.034zm1.147 1.68h9.638a.5.5 0 0 1 .5.5v9.64a.5.5 0 0 1-.5.5H7.181a.5.5 0 0 1-.5-.5V7.18a.5.5 0 0 1 .5-.5z" fill="#fff"/></svg>