<svg xmlns="http://www.w3.org/2000/svg" width="25.6" height="25.6" viewBox="0 0 24.000002 24.000001"><ellipse cx="140.476" cy="730.527" rx="11.978" ry="11.978" fill="#5cc187" stroke="#fff" stroke-width=".044" transform="translate(-128.476 -718.527)"/><path d="M11.94 3.067a.808.808 0 0 0-.41.132 1.368 1.368 0 0 0-.52.516L4.215 15.487a1.403 1.403 0 0 0-.189.65l.001.027c0 .347.148.66.428.822a.833.833 0 0 0 .562.094c.061.008.123.013.187.013h13.594c.064 0 .126-.005.187-.013a.83.83 0 0 0 .562-.094c.28-.162.429-.475.428-.822v-.028a1.404 1.404 0 0 0-.189-.65L12.99 3.717a1.36 1.36 0 0 0-.518-.516h-.001a.812.812 0 0 0-.47-.132c-.02-.001-.04-.002-.06-.001zM12 5.453l5.834 10.104H6.167z" fill="#fff"/></svg>